%
M48
M72
T01C0.02400
T02C0.02756
T03C0.03200
T04C0.03543
T05C0.03600
T06C0.04000
T07C0.04400
T08C0.11024
T09C0.11800
%
T01
X116000Y101000
X136000Y101000
T02
X121000Y51000
X111000Y51000
X136000Y221000
X136000Y231000
X76000Y231000
X76000Y221000
X76000Y246000
X76000Y256000
T03
X101000Y246000
X116000Y246000
X116000Y216000
X106000Y206000
X101000Y216000
X76000Y206000
X86000Y181000
X96000Y181000
X106000Y181000
X106000Y156000
X116000Y156000
X126000Y156000
X136000Y156000
X146000Y156000
X156000Y156000
X166000Y156000
X176000Y156000
X186000Y156000
X196000Y156000
X206000Y156000
X206000Y176000
X206000Y186000
X216000Y191000
X191000Y186000
X191000Y176000
X191000Y196000
X191000Y206000
X201000Y221000
X201000Y231000
X201000Y241000
X211000Y246000
X231000Y241000
X231000Y231000
X231000Y221000
X216000Y221000
X191000Y256000
X186000Y266000
X186000Y276000
X186000Y286000
X171000Y301000
X161000Y301000
X151000Y286000
X151000Y276000
X151000Y266000
X161000Y256000
X161000Y246000
X176000Y246000
X176000Y216000
X161000Y216000
X161000Y206000
X161000Y196000
X161000Y186000
X161000Y176000
X156000Y126000
X146000Y126000
X136000Y126000
X126000Y126000
X116000Y126000
X106000Y126000
X96000Y126000
X86000Y126000
X76000Y126000
X76000Y156000
X86000Y156000
X96000Y156000
X51000Y221000
X41000Y221000
X31000Y221000
X21000Y221000
X21000Y251000
X31000Y251000
X41000Y251000
X51000Y251000
X131000Y301000
X201000Y301000
X216000Y301000
X231000Y281000
X231000Y271000
X231000Y261000
X211000Y276000
X246000Y301000
X261000Y271000
X261000Y241000
X276000Y241000
X276000Y231000
X276000Y221000
X276000Y206000
X261000Y206000
X261000Y176000
X276000Y176000
X251000Y111000
X251000Y101000
X251000Y91000
X251000Y81000
X271000Y86000
X271000Y56000
X251000Y46000
X251000Y36000
X251000Y26000
X236000Y16000
X226000Y16000
X211000Y26000
X211000Y36000
X211000Y46000
X196000Y51000
X181000Y71000
X166000Y71000
X166000Y61000
X171000Y51000
X171000Y41000
X171000Y31000
X156000Y16000
X186000Y16000
X196000Y16000
X226000Y51000
X226000Y81000
X211000Y81000
X211000Y91000
X211000Y101000
X211000Y111000
X221000Y111000
X206000Y126000
X196000Y126000
X186000Y126000
X176000Y126000
X166000Y126000
X181000Y111000
X181000Y101000
X166000Y81000
X141000Y81000
X141000Y71000
X116000Y71000
X116000Y81000
X86000Y86000
X76000Y86000
X66000Y86000
X56000Y86000
X46000Y86000
X36000Y86000
X26000Y86000
X16000Y86000
X16000Y56000
X26000Y56000
X36000Y56000
X46000Y56000
X56000Y56000
X66000Y56000
X76000Y56000
X86000Y56000
X31000Y121000
X31000Y151000
X196000Y81000
X266000Y16000
T04
X115843Y286000
X96157Y286000
T05
X16000Y41000
X26000Y41000
X36000Y41000
X56000Y41000
X66000Y41000
X76000Y41000
X86000Y41000
X81000Y21000
X71000Y21000
X101000Y21000
X116000Y26000
X116000Y11000
X136000Y11000
X136000Y26000
X86000Y106000
X76000Y106000
X16000Y101000
X246000Y131000
X246000Y146000
X246000Y161000
X266000Y161000
X266000Y146000
X266000Y131000
T06
X126000Y181000
X126000Y191000
X126000Y201000
X46000Y191000
X26000Y191000
X36000Y106000
X46000Y106000
X56000Y106000
T07
X66000Y166000
X66000Y206000
X111000Y256000
X151000Y256000
T08
X276000Y291000
X281000Y31000
X41000Y16000
T09
X48126Y272496
X59937Y291000
X36315Y291000
M30
