G75*
%MOIN*%
%OFA0B0*%
%FSLAX25Y25*%
%IPPOS*%
%LPD*%
%AMOC8*
5,1,8,0,0,1.08239X$1,22.5*
%
%ADD10OC8,0.06300*%
%ADD11C,0.10000*%
%ADD12OC8,0.10000*%
%ADD13C,0.06500*%
%ADD14R,0.06500X0.06500*%
%ADD15C,0.06600*%
%ADD16C,0.06000*%
%ADD17C,0.05200*%
%ADD18C,0.17000*%
%ADD19C,0.05600*%
%ADD20OC8,0.05200*%
%ADD21OC8,0.06800*%
%ADD22C,0.04400*%
%ADD23C,0.05200*%
%ADD24C,0.01000*%
%ADD25C,0.01600*%
D10*
X0016000Y0041000D03*
X0026000Y0041000D03*
X0036000Y0041000D03*
X0056000Y0041000D03*
X0066000Y0041000D03*
X0076000Y0041000D03*
X0086000Y0041000D03*
X0081000Y0021000D03*
X0071000Y0021000D03*
X0101000Y0021000D03*
X0116000Y0026000D03*
X0116000Y0011000D03*
X0136000Y0011000D03*
X0136000Y0026000D03*
X0141000Y0071000D03*
X0141000Y0081000D03*
X0116000Y0081000D03*
X0116000Y0071000D03*
X0086000Y0106000D03*
X0076000Y0106000D03*
X0016000Y0101000D03*
X0246000Y0131000D03*
X0246000Y0146000D03*
X0246000Y0161000D03*
X0266000Y0161000D03*
X0266000Y0146000D03*
X0266000Y0131000D03*
D11*
X0026000Y0191000D03*
D12*
X0046000Y0191000D03*
D13*
X0076000Y0221000D03*
X0076000Y0231000D03*
X0076000Y0246000D03*
X0076000Y0256000D03*
X0136000Y0221000D03*
X0121000Y0051000D03*
D14*
X0111000Y0051000D03*
X0136000Y0231000D03*
D15*
X0151000Y0256000D03*
X0111000Y0256000D03*
X0066000Y0206000D03*
X0066000Y0166000D03*
D16*
X0056000Y0109000D02*
X0056000Y0103000D01*
X0046000Y0103000D02*
X0046000Y0109000D01*
X0036000Y0109000D02*
X0036000Y0103000D01*
X0123000Y0181000D02*
X0129000Y0181000D01*
X0129000Y0191000D02*
X0123000Y0191000D01*
X0123000Y0201000D02*
X0129000Y0201000D01*
D17*
X0106000Y0183600D02*
X0106000Y0178400D01*
X0096000Y0178400D02*
X0096000Y0183600D01*
X0086000Y0183600D02*
X0086000Y0178400D01*
X0086000Y0158600D02*
X0086000Y0153400D01*
X0076000Y0153400D02*
X0076000Y0158600D01*
X0096000Y0158600D02*
X0096000Y0153400D01*
X0106000Y0153400D02*
X0106000Y0158600D01*
X0116000Y0158600D02*
X0116000Y0153400D01*
X0126000Y0153400D02*
X0126000Y0158600D01*
X0136000Y0158600D02*
X0136000Y0153400D01*
X0146000Y0153400D02*
X0146000Y0158600D01*
X0156000Y0158600D02*
X0156000Y0153400D01*
X0166000Y0153400D02*
X0166000Y0158600D01*
X0176000Y0158600D02*
X0176000Y0153400D01*
X0186000Y0153400D02*
X0186000Y0158600D01*
X0196000Y0158600D02*
X0196000Y0153400D01*
X0206000Y0153400D02*
X0206000Y0158600D01*
X0193600Y0176000D02*
X0188400Y0176000D01*
X0188400Y0186000D02*
X0193600Y0186000D01*
X0193600Y0196000D02*
X0188400Y0196000D01*
X0188400Y0206000D02*
X0193600Y0206000D01*
X0198400Y0221000D02*
X0203600Y0221000D01*
X0203600Y0231000D02*
X0198400Y0231000D01*
X0198400Y0241000D02*
X0203600Y0241000D01*
X0188600Y0266000D02*
X0183400Y0266000D01*
X0183400Y0276000D02*
X0188600Y0276000D01*
X0188600Y0286000D02*
X0183400Y0286000D01*
X0153600Y0286000D02*
X0148400Y0286000D01*
X0148400Y0276000D02*
X0153600Y0276000D01*
X0153600Y0266000D02*
X0148400Y0266000D01*
X0158400Y0206000D02*
X0163600Y0206000D01*
X0163600Y0196000D02*
X0158400Y0196000D01*
X0158400Y0186000D02*
X0163600Y0186000D01*
X0163600Y0176000D02*
X0158400Y0176000D01*
X0156000Y0128600D02*
X0156000Y0123400D01*
X0146000Y0123400D02*
X0146000Y0128600D01*
X0136000Y0128600D02*
X0136000Y0123400D01*
X0126000Y0123400D02*
X0126000Y0128600D01*
X0116000Y0128600D02*
X0116000Y0123400D01*
X0106000Y0123400D02*
X0106000Y0128600D01*
X0096000Y0128600D02*
X0096000Y0123400D01*
X0086000Y0123400D02*
X0086000Y0128600D01*
X0076000Y0128600D02*
X0076000Y0123400D01*
X0076000Y0088600D02*
X0076000Y0083400D01*
X0086000Y0083400D02*
X0086000Y0088600D01*
X0066000Y0088600D02*
X0066000Y0083400D01*
X0056000Y0083400D02*
X0056000Y0088600D01*
X0046000Y0088600D02*
X0046000Y0083400D01*
X0036000Y0083400D02*
X0036000Y0088600D01*
X0026000Y0088600D02*
X0026000Y0083400D01*
X0016000Y0083400D02*
X0016000Y0088600D01*
X0016000Y0058600D02*
X0016000Y0053400D01*
X0026000Y0053400D02*
X0026000Y0058600D01*
X0036000Y0058600D02*
X0036000Y0053400D01*
X0046000Y0053400D02*
X0046000Y0058600D01*
X0056000Y0058600D02*
X0056000Y0053400D01*
X0066000Y0053400D02*
X0066000Y0058600D01*
X0076000Y0058600D02*
X0076000Y0053400D01*
X0086000Y0053400D02*
X0086000Y0058600D01*
X0163400Y0061000D02*
X0168600Y0061000D01*
X0168600Y0071000D02*
X0163400Y0071000D01*
X0163400Y0081000D02*
X0168600Y0081000D01*
X0168400Y0051000D02*
X0173600Y0051000D01*
X0173600Y0041000D02*
X0168400Y0041000D01*
X0168400Y0031000D02*
X0173600Y0031000D01*
X0208400Y0026000D02*
X0213600Y0026000D01*
X0213600Y0036000D02*
X0208400Y0036000D01*
X0208400Y0046000D02*
X0213600Y0046000D01*
X0248400Y0046000D02*
X0253600Y0046000D01*
X0253600Y0036000D02*
X0248400Y0036000D01*
X0248400Y0026000D02*
X0253600Y0026000D01*
X0253600Y0081000D02*
X0248400Y0081000D01*
X0248400Y0091000D02*
X0253600Y0091000D01*
X0253600Y0101000D02*
X0248400Y0101000D01*
X0213600Y0101000D02*
X0208400Y0101000D01*
X0208400Y0091000D02*
X0213600Y0091000D01*
X0213600Y0081000D02*
X0208400Y0081000D01*
X0206000Y0123400D02*
X0206000Y0128600D01*
X0196000Y0128600D02*
X0196000Y0123400D01*
X0186000Y0123400D02*
X0186000Y0128600D01*
X0176000Y0128600D02*
X0176000Y0123400D01*
X0166000Y0123400D02*
X0166000Y0128600D01*
X0228400Y0221000D02*
X0233600Y0221000D01*
X0233600Y0231000D02*
X0228400Y0231000D01*
X0228400Y0241000D02*
X0233600Y0241000D01*
X0233600Y0261000D02*
X0228400Y0261000D01*
X0228400Y0271000D02*
X0233600Y0271000D01*
X0233600Y0281000D02*
X0228400Y0281000D01*
X0273400Y0241000D02*
X0278600Y0241000D01*
X0278600Y0231000D02*
X0273400Y0231000D01*
X0273400Y0221000D02*
X0278600Y0221000D01*
D18*
X0059937Y0291000D03*
X0048126Y0272496D03*
X0036315Y0291000D03*
D19*
X0096157Y0286000D03*
X0115843Y0286000D03*
D20*
X0131000Y0301000D03*
X0161000Y0301000D03*
X0171000Y0301000D03*
X0201000Y0301000D03*
X0216000Y0301000D03*
X0211000Y0276000D03*
X0191000Y0256000D03*
X0176000Y0246000D03*
X0161000Y0246000D03*
X0161000Y0256000D03*
X0161000Y0216000D03*
X0176000Y0216000D03*
X0211000Y0246000D03*
X0216000Y0221000D03*
X0216000Y0191000D03*
X0261000Y0176000D03*
X0276000Y0176000D03*
X0276000Y0206000D03*
X0261000Y0206000D03*
X0261000Y0241000D03*
X0261000Y0271000D03*
X0246000Y0301000D03*
X0116000Y0246000D03*
X0101000Y0246000D03*
X0101000Y0216000D03*
X0106000Y0206000D03*
X0116000Y0216000D03*
X0076000Y0206000D03*
X0031000Y0151000D03*
X0031000Y0121000D03*
X0156000Y0016000D03*
X0186000Y0016000D03*
X0196000Y0016000D03*
X0226000Y0016000D03*
X0236000Y0016000D03*
X0266000Y0016000D03*
X0271000Y0056000D03*
X0271000Y0086000D03*
X0251000Y0111000D03*
X0221000Y0111000D03*
X0211000Y0111000D03*
X0181000Y0111000D03*
X0181000Y0101000D03*
X0196000Y0081000D03*
X0181000Y0071000D03*
X0196000Y0051000D03*
X0226000Y0051000D03*
X0226000Y0081000D03*
D21*
X0051000Y0221000D03*
X0041000Y0221000D03*
X0031000Y0221000D03*
X0021000Y0221000D03*
X0021000Y0251000D03*
X0031000Y0251000D03*
X0041000Y0251000D03*
X0051000Y0251000D03*
D22*
X0116000Y0103200D02*
X0116000Y0098800D01*
X0136000Y0098800D02*
X0136000Y0103200D01*
D23*
X0206000Y0176000D03*
X0206000Y0186000D03*
D24*
X0205882Y0186039D01*
X0191118Y0186039D01*
X0191000Y0186000D01*
X0191118Y0176197D02*
X0191000Y0176000D01*
X0191118Y0176197D02*
X0205882Y0176197D01*
X0206000Y0176000D01*
X0206000Y0156000D02*
X0205400Y0155800D01*
X0201800Y0152200D01*
X0201800Y0122500D01*
X0181100Y0101800D01*
X0181000Y0101000D01*
X0181000Y0111000D02*
X0181100Y0111700D01*
X0181100Y0141400D01*
X0195500Y0155800D01*
X0196000Y0156000D01*
X0173480Y0183087D02*
X0161591Y0176197D01*
X0161000Y0176000D01*
X0160606Y0175213D01*
X0156669Y0171276D01*
X0156669Y0156512D01*
X0156000Y0156000D01*
X0155685Y0155528D01*
X0155685Y0145685D01*
X0136000Y0126000D01*
X0136984Y0107299D02*
X0116315Y0107299D01*
X0116315Y0101394D01*
X0116000Y0101000D01*
X0116315Y0100409D01*
X0116315Y0081709D01*
X0116000Y0081000D01*
X0101551Y0077772D02*
X0136000Y0043323D01*
X0136000Y0026000D01*
X0156000Y0016000D02*
X0156669Y0016748D01*
X0170449Y0030528D01*
X0171000Y0031000D01*
X0157654Y0037417D02*
X0157654Y0020685D01*
X0101551Y0020685D01*
X0101000Y0021000D01*
X0084819Y0024622D02*
X0071039Y0038402D01*
X0071039Y0061039D01*
X0046433Y0085646D01*
X0046000Y0086000D01*
X0036591Y0086630D02*
X0036000Y0086000D01*
X0036591Y0086630D02*
X0048402Y0098441D01*
X0071039Y0098441D01*
X0071039Y0108283D01*
X0079898Y0117142D01*
X0095646Y0117142D01*
X0095646Y0126000D01*
X0096000Y0126000D01*
X0086000Y0126000D02*
X0085803Y0126000D01*
X0085803Y0119110D01*
X0049386Y0119110D01*
X0041512Y0111236D01*
X0041512Y0101394D01*
X0026748Y0086630D01*
X0026000Y0086000D01*
X0016000Y0086000D02*
X0015921Y0086630D01*
X0015921Y0100409D01*
X0016000Y0101000D01*
X0026748Y0115173D02*
X0026748Y0190961D01*
X0026000Y0191000D01*
X0025764Y0191945D01*
X0025764Y0216551D01*
X0021827Y0220488D01*
X0021000Y0221000D01*
X0020843Y0221472D01*
X0020843Y0251000D01*
X0021000Y0251000D01*
X0031000Y0251000D01*
X0041000Y0251000D01*
X0041512Y0251000D01*
X0058244Y0267732D01*
X0058244Y0284465D01*
X0060213Y0286433D01*
X0059937Y0291000D01*
X0060213Y0290370D01*
X0060213Y0286433D01*
X0095646Y0286433D01*
X0096157Y0286000D01*
X0111394Y0281512D02*
X0111394Y0256906D01*
X0111000Y0256000D01*
X0111394Y0255921D01*
X0111394Y0199819D01*
X0120173Y0191039D01*
X0126000Y0191000D01*
X0137890Y0174228D02*
X0142890Y0178165D01*
X0160606Y0195882D01*
X0161000Y0196000D01*
X0160606Y0205724D02*
X0161000Y0206000D01*
X0161591Y0215567D02*
X0161000Y0216000D01*
X0161591Y0215567D02*
X0173480Y0208677D01*
X0173480Y0183087D01*
X0161000Y0186000D02*
X0160606Y0185547D01*
X0157161Y0185547D01*
X0132063Y0160449D01*
X0132063Y0151591D01*
X0106472Y0126000D01*
X0106000Y0126000D01*
X0086000Y0106000D02*
X0085803Y0105331D01*
X0085803Y0086630D01*
X0086000Y0086000D01*
X0076000Y0086000D02*
X0075961Y0086630D01*
X0075961Y0105331D01*
X0076000Y0106000D01*
X0101551Y0077772D02*
X0101551Y0150606D01*
X0096630Y0155528D01*
X0096000Y0156000D01*
X0086000Y0156000D02*
X0085803Y0155528D01*
X0076453Y0156020D02*
X0076000Y0156000D01*
X0076453Y0156020D02*
X0094661Y0174228D01*
X0137890Y0174228D01*
X0106000Y0181000D02*
X0105980Y0181118D01*
X0105980Y0205724D01*
X0106000Y0206000D01*
X0096000Y0181000D02*
X0095646Y0181118D01*
X0076453Y0200311D01*
X0076453Y0205724D01*
X0076000Y0206000D01*
X0075961Y0206217D01*
X0066118Y0206217D01*
X0066000Y0206000D01*
X0065134Y0206709D01*
X0045449Y0206709D01*
X0031669Y0220488D01*
X0031000Y0221000D01*
X0066118Y0166354D02*
X0066000Y0166000D01*
X0066610Y0166354D01*
X0071531Y0166354D01*
X0085803Y0180626D01*
X0086000Y0181000D01*
X0136000Y0231000D02*
X0136000Y0241157D01*
X0150764Y0255921D01*
X0151000Y0256000D01*
X0151000Y0266000D02*
X0140685Y0271748D01*
X0131079Y0291354D01*
X0131079Y0300213D01*
X0131000Y0301000D01*
X0115843Y0286000D02*
X0115331Y0285449D01*
X0111394Y0281512D01*
X0151000Y0276000D02*
X0156669Y0275606D01*
X0162575Y0269701D01*
X0162575Y0257890D01*
X0161591Y0256906D01*
X0161000Y0256000D01*
X0161591Y0246079D02*
X0161000Y0246000D01*
X0161591Y0246079D02*
X0175370Y0246079D01*
X0176000Y0246000D01*
X0176354Y0245094D01*
X0180291Y0241157D01*
X0180291Y0206709D01*
X0191000Y0196000D01*
X0201000Y0221000D02*
X0200961Y0221472D01*
X0191118Y0231315D01*
X0191118Y0255921D01*
X0191000Y0256000D01*
X0186000Y0266000D02*
X0185213Y0266748D01*
X0171433Y0280528D01*
X0171433Y0300213D01*
X0171000Y0301000D01*
X0166512Y0306118D02*
X0255094Y0306118D01*
X0255094Y0170291D01*
X0246236Y0161433D01*
X0246000Y0161000D01*
X0234346Y0168756D02*
X0238283Y0177693D01*
X0238283Y0278638D01*
X0236394Y0280528D01*
X0231000Y0281000D01*
X0216709Y0280528D02*
X0216709Y0300213D01*
X0216000Y0301000D01*
X0216709Y0280528D02*
X0225409Y0261827D01*
X0231000Y0261000D01*
X0210803Y0275606D02*
X0211000Y0276000D01*
X0210803Y0275606D02*
X0186197Y0275606D01*
X0186000Y0276000D01*
X0161591Y0301197D02*
X0161000Y0301000D01*
X0161591Y0301197D02*
X0166512Y0306118D01*
X0211000Y0246000D02*
X0211787Y0245094D01*
X0225409Y0221472D01*
X0231000Y0221000D01*
X0216000Y0221000D02*
X0215300Y0221500D01*
X0206300Y0230500D01*
X0201800Y0230500D01*
X0201000Y0231000D01*
X0234346Y0168756D02*
X0234346Y0057102D01*
X0250173Y0046276D01*
X0251000Y0046000D01*
X0258047Y0031512D02*
X0241315Y0031512D01*
X0226551Y0016748D01*
X0226000Y0016000D01*
X0236000Y0016000D02*
X0236394Y0016748D01*
X0250173Y0016748D01*
X0250173Y0025606D01*
X0251000Y0026000D01*
X0258047Y0031512D02*
X0258047Y0119110D01*
X0246236Y0130921D01*
X0246000Y0131000D01*
X0251000Y0111000D02*
X0250173Y0110252D01*
X0239268Y0109346D01*
X0239268Y0092457D01*
X0250173Y0091551D01*
X0251000Y0091000D01*
X0226000Y0081000D02*
X0220488Y0080724D01*
X0211787Y0080724D01*
X0211000Y0081000D01*
X0211000Y0091000D02*
X0211787Y0091551D01*
X0217693Y0097457D01*
X0217693Y0104346D01*
X0211787Y0110252D01*
X0211000Y0111000D01*
X0196000Y0081000D02*
X0196400Y0080200D01*
X0177500Y0061300D01*
X0166700Y0061300D01*
X0166000Y0061000D01*
X0166000Y0071000D02*
X0166700Y0071200D01*
X0180200Y0071200D01*
X0181000Y0071000D01*
X0171000Y0051000D02*
X0170449Y0050213D01*
X0157654Y0037417D01*
X0171433Y0050213D02*
X0171000Y0051000D01*
X0171433Y0050213D02*
X0186197Y0050213D01*
X0190134Y0046276D01*
X0210803Y0046276D01*
X0211000Y0046000D01*
X0211787Y0036433D02*
X0211000Y0036000D01*
X0211787Y0036433D02*
X0225488Y0036433D01*
X0225488Y0050213D01*
X0226000Y0051000D01*
X0211000Y0026000D02*
X0210803Y0025606D01*
X0210803Y0016748D01*
X0196039Y0016748D01*
X0196000Y0016000D01*
X0141906Y0080724D02*
X0141000Y0081000D01*
X0140921Y0081709D01*
X0140921Y0095488D01*
X0136000Y0100409D01*
X0136000Y0101000D01*
X0136984Y0107299D02*
X0155685Y0126000D01*
X0156000Y0126000D01*
X0163559Y0124031D02*
X0163559Y0102378D01*
X0141906Y0080724D01*
X0111000Y0051000D02*
X0110409Y0050213D01*
X0084819Y0024622D01*
X0081866Y0021669D01*
X0081000Y0021000D01*
X0076000Y0041000D02*
X0075961Y0041354D01*
X0075961Y0055134D01*
X0076000Y0056000D01*
X0085803Y0055134D02*
X0086000Y0056000D01*
X0085803Y0055134D02*
X0085803Y0041354D01*
X0086000Y0041000D01*
X0066118Y0041354D02*
X0066000Y0041000D01*
X0066118Y0041354D02*
X0066118Y0055134D01*
X0066000Y0056000D01*
X0056276Y0055134D02*
X0056000Y0056000D01*
X0056276Y0055134D02*
X0056276Y0041354D01*
X0056000Y0041000D01*
X0036591Y0041354D02*
X0036000Y0041000D01*
X0036591Y0041354D02*
X0036591Y0055134D01*
X0036000Y0056000D01*
X0026000Y0056000D02*
X0025764Y0055134D01*
X0025764Y0041354D01*
X0026000Y0041000D01*
X0016000Y0041000D02*
X0015921Y0041354D01*
X0015921Y0055134D01*
X0016000Y0056000D01*
X0036000Y0106000D02*
X0035606Y0106315D01*
X0026748Y0115173D01*
X0163559Y0124031D02*
X0165528Y0126000D01*
X0166000Y0126000D01*
X0265921Y0130921D02*
X0266000Y0131000D01*
X0265921Y0130921D02*
X0265921Y0016748D01*
X0266000Y0016000D01*
X0276000Y0206000D02*
X0276748Y0206709D01*
X0282654Y0212614D01*
X0282654Y0224425D01*
X0276748Y0230331D01*
X0276000Y0231000D01*
X0275764Y0221472D02*
X0276000Y0221000D01*
X0275764Y0221472D02*
X0261000Y0236236D01*
X0261000Y0241000D01*
D25*
X0246000Y0301000D02*
X0246000Y0176000D01*
X0241000Y0171000D01*
X0241000Y0151000D01*
X0246000Y0146000D01*
X0221000Y0156000D02*
X0221000Y0111000D01*
X0221000Y0156000D02*
X0211000Y0166000D01*
X0191000Y0166000D01*
X0186000Y0161000D01*
X0186000Y0156000D01*
X0076000Y0231000D02*
X0051000Y0231000D01*
X0041000Y0221000D01*
X0051000Y0251000D02*
X0056000Y0256000D01*
X0076000Y0256000D01*
M02*
