G75*
%MOIN*%
%OFA0B0*%
%FSLAX25Y25*%
%IPPOS*%
%LPD*%
%AMOC8*
5,1,8,0,0,1.08239X$1,22.5*
%
%ADD10OC8,0.07100*%
%ADD11C,0.10800*%
%ADD12OC8,0.10800*%
%ADD13C,0.07071*%
%ADD14C,0.07211*%
%ADD15C,0.07300*%
%ADD16R,0.07300X0.07300*%
%ADD17C,0.07400*%
%ADD18C,0.06800*%
%ADD19C,0.06000*%
%ADD20C,0.17800*%
%ADD21C,0.06400*%
%ADD22OC8,0.06000*%
%ADD23OC8,0.07600*%
%ADD24C,0.05200*%
%ADD25C,0.06000*%
%ADD26C,0.11824*%
D10*
X0016000Y0041000D03*
X0026000Y0041000D03*
X0036000Y0041000D03*
X0056000Y0041000D03*
X0066000Y0041000D03*
X0076000Y0041000D03*
X0086000Y0041000D03*
X0081000Y0021000D03*
X0071000Y0021000D03*
X0101000Y0021000D03*
X0116000Y0026000D03*
X0116000Y0011000D03*
X0136000Y0011000D03*
X0136000Y0026000D03*
X0141000Y0071000D03*
X0141000Y0081000D03*
X0116000Y0081000D03*
X0116000Y0071000D03*
X0086000Y0106000D03*
X0076000Y0106000D03*
X0016000Y0101000D03*
X0246000Y0131000D03*
X0246000Y0146000D03*
X0246000Y0161000D03*
X0266000Y0161000D03*
X0266000Y0146000D03*
X0266000Y0131000D03*
D11*
X0026000Y0191000D03*
D12*
X0046000Y0191000D03*
D13*
X0076000Y0231000D03*
X0076000Y0246000D03*
D14*
X0076000Y0256000D03*
X0076000Y0221000D03*
D15*
X0136000Y0221000D03*
X0121000Y0051000D03*
D16*
X0111000Y0051000D03*
X0136000Y0231000D03*
D17*
X0151000Y0256000D03*
X0111000Y0256000D03*
X0066000Y0206000D03*
X0066000Y0166000D03*
D18*
X0056000Y0109000D02*
X0056000Y0103000D01*
X0046000Y0103000D02*
X0046000Y0109000D01*
X0036000Y0109000D02*
X0036000Y0103000D01*
X0123000Y0181000D02*
X0129000Y0181000D01*
X0129000Y0191000D02*
X0123000Y0191000D01*
X0123000Y0201000D02*
X0129000Y0201000D01*
D19*
X0106000Y0183600D02*
X0106000Y0178400D01*
X0096000Y0178400D02*
X0096000Y0183600D01*
X0086000Y0183600D02*
X0086000Y0178400D01*
X0086000Y0158600D02*
X0086000Y0153400D01*
X0076000Y0153400D02*
X0076000Y0158600D01*
X0096000Y0158600D02*
X0096000Y0153400D01*
X0106000Y0153400D02*
X0106000Y0158600D01*
X0116000Y0158600D02*
X0116000Y0153400D01*
X0126000Y0153400D02*
X0126000Y0158600D01*
X0136000Y0158600D02*
X0136000Y0153400D01*
X0146000Y0153400D02*
X0146000Y0158600D01*
X0156000Y0158600D02*
X0156000Y0153400D01*
X0166000Y0153400D02*
X0166000Y0158600D01*
X0176000Y0158600D02*
X0176000Y0153400D01*
X0186000Y0153400D02*
X0186000Y0158600D01*
X0196000Y0158600D02*
X0196000Y0153400D01*
X0206000Y0153400D02*
X0206000Y0158600D01*
X0193600Y0176000D02*
X0188400Y0176000D01*
X0188400Y0186000D02*
X0193600Y0186000D01*
X0193600Y0196000D02*
X0188400Y0196000D01*
X0188400Y0206000D02*
X0193600Y0206000D01*
X0198400Y0221000D02*
X0203600Y0221000D01*
X0203600Y0231000D02*
X0198400Y0231000D01*
X0198400Y0241000D02*
X0203600Y0241000D01*
X0188600Y0266000D02*
X0183400Y0266000D01*
X0183400Y0276000D02*
X0188600Y0276000D01*
X0188600Y0286000D02*
X0183400Y0286000D01*
X0153600Y0286000D02*
X0148400Y0286000D01*
X0148400Y0276000D02*
X0153600Y0276000D01*
X0153600Y0266000D02*
X0148400Y0266000D01*
X0158400Y0206000D02*
X0163600Y0206000D01*
X0163600Y0196000D02*
X0158400Y0196000D01*
X0158400Y0186000D02*
X0163600Y0186000D01*
X0163600Y0176000D02*
X0158400Y0176000D01*
X0156000Y0128600D02*
X0156000Y0123400D01*
X0146000Y0123400D02*
X0146000Y0128600D01*
X0136000Y0128600D02*
X0136000Y0123400D01*
X0126000Y0123400D02*
X0126000Y0128600D01*
X0116000Y0128600D02*
X0116000Y0123400D01*
X0106000Y0123400D02*
X0106000Y0128600D01*
X0096000Y0128600D02*
X0096000Y0123400D01*
X0086000Y0123400D02*
X0086000Y0128600D01*
X0076000Y0128600D02*
X0076000Y0123400D01*
X0076000Y0088600D02*
X0076000Y0083400D01*
X0086000Y0083400D02*
X0086000Y0088600D01*
X0066000Y0088600D02*
X0066000Y0083400D01*
X0056000Y0083400D02*
X0056000Y0088600D01*
X0046000Y0088600D02*
X0046000Y0083400D01*
X0036000Y0083400D02*
X0036000Y0088600D01*
X0026000Y0088600D02*
X0026000Y0083400D01*
X0016000Y0083400D02*
X0016000Y0088600D01*
X0016000Y0058600D02*
X0016000Y0053400D01*
X0026000Y0053400D02*
X0026000Y0058600D01*
X0036000Y0058600D02*
X0036000Y0053400D01*
X0046000Y0053400D02*
X0046000Y0058600D01*
X0056000Y0058600D02*
X0056000Y0053400D01*
X0066000Y0053400D02*
X0066000Y0058600D01*
X0076000Y0058600D02*
X0076000Y0053400D01*
X0086000Y0053400D02*
X0086000Y0058600D01*
X0163400Y0061000D02*
X0168600Y0061000D01*
X0168600Y0071000D02*
X0163400Y0071000D01*
X0163400Y0081000D02*
X0168600Y0081000D01*
X0168400Y0051000D02*
X0173600Y0051000D01*
X0173600Y0041000D02*
X0168400Y0041000D01*
X0168400Y0031000D02*
X0173600Y0031000D01*
X0208400Y0026000D02*
X0213600Y0026000D01*
X0213600Y0036000D02*
X0208400Y0036000D01*
X0208400Y0046000D02*
X0213600Y0046000D01*
X0248400Y0046000D02*
X0253600Y0046000D01*
X0253600Y0036000D02*
X0248400Y0036000D01*
X0248400Y0026000D02*
X0253600Y0026000D01*
X0253600Y0081000D02*
X0248400Y0081000D01*
X0248400Y0091000D02*
X0253600Y0091000D01*
X0253600Y0101000D02*
X0248400Y0101000D01*
X0213600Y0101000D02*
X0208400Y0101000D01*
X0208400Y0091000D02*
X0213600Y0091000D01*
X0213600Y0081000D02*
X0208400Y0081000D01*
X0206000Y0123400D02*
X0206000Y0128600D01*
X0196000Y0128600D02*
X0196000Y0123400D01*
X0186000Y0123400D02*
X0186000Y0128600D01*
X0176000Y0128600D02*
X0176000Y0123400D01*
X0166000Y0123400D02*
X0166000Y0128600D01*
X0228400Y0221000D02*
X0233600Y0221000D01*
X0233600Y0231000D02*
X0228400Y0231000D01*
X0228400Y0241000D02*
X0233600Y0241000D01*
X0233600Y0261000D02*
X0228400Y0261000D01*
X0228400Y0271000D02*
X0233600Y0271000D01*
X0233600Y0281000D02*
X0228400Y0281000D01*
X0273400Y0241000D02*
X0278600Y0241000D01*
X0278600Y0231000D02*
X0273400Y0231000D01*
X0273400Y0221000D02*
X0278600Y0221000D01*
D20*
X0059937Y0291000D03*
X0048126Y0272496D03*
X0036315Y0291000D03*
D21*
X0096157Y0286000D03*
X0115843Y0286000D03*
D22*
X0131000Y0301000D03*
X0161000Y0301000D03*
X0171000Y0301000D03*
X0201000Y0301000D03*
X0216000Y0301000D03*
X0211000Y0276000D03*
X0191000Y0256000D03*
X0176000Y0246000D03*
X0161000Y0246000D03*
X0161000Y0256000D03*
X0161000Y0216000D03*
X0176000Y0216000D03*
X0211000Y0246000D03*
X0216000Y0221000D03*
X0216000Y0191000D03*
X0261000Y0176000D03*
X0276000Y0176000D03*
X0276000Y0206000D03*
X0261000Y0206000D03*
X0261000Y0241000D03*
X0261000Y0271000D03*
X0246000Y0301000D03*
X0116000Y0246000D03*
X0101000Y0246000D03*
X0101000Y0216000D03*
X0106000Y0206000D03*
X0116000Y0216000D03*
X0076000Y0206000D03*
X0031000Y0151000D03*
X0031000Y0121000D03*
X0156000Y0016000D03*
X0186000Y0016000D03*
X0196000Y0016000D03*
X0226000Y0016000D03*
X0236000Y0016000D03*
X0266000Y0016000D03*
X0271000Y0056000D03*
X0271000Y0086000D03*
X0251000Y0111000D03*
X0221000Y0111000D03*
X0211000Y0111000D03*
X0181000Y0111000D03*
X0181000Y0101000D03*
X0196000Y0081000D03*
X0181000Y0071000D03*
X0196000Y0051000D03*
X0226000Y0051000D03*
X0226000Y0081000D03*
D23*
X0051000Y0221000D03*
X0041000Y0221000D03*
X0031000Y0221000D03*
X0021000Y0221000D03*
X0021000Y0251000D03*
X0031000Y0251000D03*
X0041000Y0251000D03*
X0051000Y0251000D03*
D24*
X0116000Y0103200D02*
X0116000Y0098800D01*
X0136000Y0098800D02*
X0136000Y0103200D01*
D25*
X0206000Y0176000D03*
X0206000Y0186000D03*
D26*
X0276000Y0291000D03*
X0281000Y0031000D03*
X0041000Y0016000D03*
M02*
